<?xml version="1.0" standalone="no"?>
<!DOCTYPE svg PUBLIC "-//W3C//DTD SVG 20010904//EN"
 "http://www.w3.org/TR/2001/REC-SVG-20010904/DTD/svg10.dtd">
<svg version="1.0" xmlns="http://www.w3.org/2000/svg"
 width="480.000000pt" height="480.000000pt" viewBox="0 0 480.000000 480.000000"
 preserveAspectRatio="xMidYMid meet">
<metadata>
Created by potrace 1.16, written by Peter Selinger 2001-2019
</metadata>
<g transform="translate(0.000000,480.000000) scale(0.100000,-0.100000)"
fill="#000000" stroke="none">
<path d="M3570 3690 c-7 -12 -9 -131 -8 -342 l3 -323 51 -3 c34 -2 55 2 62 11
8 9 13 97 14 273 l3 259 40 0 40 0 3 -617 2 -618 -25 -6 c-30 -7 -45 -31 -45
-73 0 -44 17 -82 40 -88 20 -5 20 -15 20 -555 l0 -550 -25 -30 c-19 -23 -25
-41 -25 -78 0 -27 4 -52 10 -55 13 -8 181 -23 203 -17 37 9 43 125 8 151 l-22
17 0 561 0 561 26 26 c21 21 26 34 23 69 -2 34 -8 44 -30 55 l-28 13 0 620 0
620 38 -3 37 -3 5 -270 5 -270 55 -3 c43 -3 57 1 67 14 10 14 13 92 13 329 0
289 -1 313 -18 328 -16 15 -50 17 -275 17 -244 0 -257 -1 -267 -20z"/>
<path d="M2535 3487 c-60 -61 -175 -175 -255 -252 -137 -132 -293 -297 -315
-333 -14 -24 -18 -1482 -3 -1499 6 -7 18 -13 27 -13 19 0 71 62 71 84 0 8 5
18 10 21 6 3 20 25 33 48 22 42 22 43 27 682 5 608 6 642 24 670 28 44 338
355 348 349 4 -3 8 -382 8 -843 l0 -838 56 -62 c48 -51 62 -61 90 -61 l33 0 3
913 c2 501 1 986 -2 1077 -6 212 -5 211 -155 57z"/>
<path d="M1024 3449 c-4 -6 -8 -185 -11 -398 l-4 -386 -24 -36 c-24 -38 -106
-86 -125 -74 -6 4 -10 133 -10 374 0 388 -2 408 -46 399 -19 -3 -19 -23 -19
-1008 0 -971 1 -1005 19 -1008 10 -2 23 1 30 8 8 8 12 172 16 578 l5 567 39 3
c55 5 80 -4 120 -39 25 -22 37 -43 45 -80 7 -32 11 -259 11 -648 0 -632 0
-638 46 -629 19 3 19 20 22 652 l2 649 -31 49 c-25 39 -72 84 -107 104 -1 1
16 29 39 62 l42 61 -2 393 c-2 257 -6 397 -13 405 -13 16 -35 17 -44 2z"/>
<path d="M2751 3437 c-8 -10 -11 -317 -11 -1081 -1 -1014 0 -1069 17 -1082 10
-7 24 -14 30 -14 21 0 663 651 679 689 27 64 6 100 -145 251 -124 123 -229
217 -314 278 -71 51 -68 36 -58 257 11 233 6 549 -8 588 -6 15 -15 27 -21 27
-6 0 -32 23 -58 50 -48 52 -87 65 -111 37z m398 -1256 c100 -96 181 -181 181
-189 0 -7 -24 -34 -52 -60 -29 -25 -112 -105 -184 -179 -73 -73 -137 -133
-143 -133 -8 0 -11 104 -11 371 0 315 2 370 14 367 8 -2 96 -81 195 -177z"/>
<path d="M1749 2973 c-77 -72 -79 -79 -79 -266 0 -189 -8 -215 -51 -175 -14
13 -37 29 -52 37 -15 8 -61 47 -102 85 l-74 71 6 58 6 57 -62 62 c-50 50 -64
59 -71 48 -6 -8 -10 -122 -10 -254 l0 -238 198 -197 c109 -108 206 -202 215
-209 9 -7 17 -17 17 -21 0 -5 -97 -106 -216 -225 l-215 -216 3 -52 3 -53 34 2
c22 1 38 8 44 20 6 10 30 37 54 61 24 24 43 46 43 50 0 4 34 41 76 82 42 41
130 128 195 194 l119 118 0 498 c0 569 4 543 -81 463z m-276 -456 c26 -23 72
-62 102 -87 103 -84 96 -74 93 -148 -4 -84 -16 -88 -83 -26 -27 25 -80 73
-116 105 -56 50 -67 67 -77 108 -13 56 -6 91 17 91 9 0 37 -20 64 -43z"/>
<path d="M3375 2916 c-24 -17 -26 -80 -3 -103 23 -22 93 -21 118 2 26 24 25
41 -6 82 -19 25 -32 33 -58 33 -18 0 -41 -6 -51 -14z"/>
</g>
</svg>
